Coordinates
version=1
nRows=15
nColumns=63
inDegrees=yes

Units are S.I. units (second, meters, Newtons, ...)
If the header above contains a line with 'inDegrees', this indicates whether rotational values are in degrees (yes) or radians (no).

endheader
time	pelvis_tilt	pelvis_list	pelvis_rotation	pelvis_tx	pelvis_ty	pelvis_tz	hip_flexion_r	hip_adduction_r	hip_rotation_r	knee_angle_r	knee_angle_r_beta	ankle_angle_r	subtalar_angle_r	mtp_angle_r	hip_flexion_l	hip_adduction_l	hip_rotation_l	knee_angle_l	knee_angle_l_beta	ankle_angle_l	subtalar_angle_l	mtp_angle_l	L5_S1_Flex_Ext	L5_S1_Lat_Bending	L5_S1_axial_rotation	L4_L5_Flex_Ext	L4_L5_Lat_Bending	L4_L5_axial_rotation	L3_L4_Flex_Ext	L3_L4_Lat_Bending	L3_L4_axial_rotation	L2_L3_Flex_Ext	L2_L3_Lat_Bending	L2_L3_axial_rotation	L1_L2_Flex_Ext	L1_L2_Lat_Bending	L1_L2_axial_rotation	L1_T12_Flex_Ext	L1_T12_Lat_Bending	L1_T12_axial_rotation	Abs_r3	Abs_r2	Abs_r1	Abs_t1	Abs_t2	neck_flexion	neck_bending	neck_rotation	arm_flex_r	arm_add_r	arm_rot_r	elbow_flex_r	pro_sup_r	wrist_flex_r	wrist_dev_r	arm_flex_l	arm_add_l	arm_rot_l	elbow_flex_l	pro_sup_l	wrist_flex_l	wrist_dev_l
3.127660	-1.394802	-0.184780	89.233478	0.055995	0.892191	0.559904	3.721263	0.053181	-4.945515	12.316683	0.214967	32.170980	6.950833	0.000000	-3.918219	1.460528	-5.425519	0.522261	0.009115	28.508227	-3.361157	0.000000	-0.077826	0.103129	1.029778	-0.144531	0.137162	1.094139	-0.127861	0.250749	1.094139	-0.088947	0.250749	0.901056	-0.072269	0.210302	0.836694	-0.044470	0.159748	0.772333	-0.555904	1.166621	5.727315	0.000000	0.000000	21.512606	3.308546	3.598317	8.427398	-17.198633	78.068779	19.620994	41.448855	-4.806260	-8.335099	7.024677	-9.516957	166.479054	1.076534	5.030603	-15.225899	-9.623314
3.148936	-1.293719	-0.157843	89.293372	0.056157	0.892238	0.559641	3.660059	0.217634	-4.544427	12.188028	0.212721	32.113533	6.448502	0.000000	-3.973513	1.304482	-5.945413	0.520731	0.009088	28.631712	-2.417997	0.000000	-0.081261	0.105559	1.022094	-0.150909	0.140394	1.085975	-0.133503	0.256657	1.085975	-0.092873	0.256657	0.894332	-0.075459	0.215257	0.830451	-0.046432	0.163512	0.766570	-0.580437	1.194110	5.684580	0.000000	0.000000	21.456054	2.477284	3.620140	8.372321	-17.208709	77.466581	19.758773	41.831399	-4.732341	-8.250466	7.018159	-9.510713	167.335365	1.056741	5.231485	-15.248104	-9.533361
3.170213	-1.172438	-0.123213	89.507004	0.056072	0.892303	0.559256	3.535896	0.394463	-4.359889	11.991976	0.209299	32.073844	6.056533	0.000000	-4.030366	1.118568	-6.105762	0.521952	0.009110	28.736416	-1.757719	0.000000	-0.083282	0.110170	0.991472	-0.154663	0.146526	1.053438	-0.136824	0.267867	1.053438	-0.095183	0.267867	0.867538	-0.077336	0.224658	0.805571	-0.047587	0.170653	0.743604	-0.594875	1.246264	5.514267	0.000000	0.000000	21.522313	1.553768	3.533894	8.345829	-17.209253	77.107834	19.864137	41.960726	-4.605106	-8.147673	7.004563	-9.517160	167.845993	1.061164	5.341476	-15.168513	-9.495851
3.191489	-1.040600	-0.072468	89.852394	0.055786	0.892388	0.558750	3.336947	0.581968	-4.334642	11.722843	0.204602	32.029887	5.711700	0.000000	-4.098202	0.910973	-6.190455	0.526283	0.009185	28.907666	-1.009222	0.000000	-0.084315	0.115982	0.943314	-0.156581	0.154257	1.002271	-0.138521	0.281999	1.002271	-0.096364	0.281999	0.825400	-0.078295	0.236511	0.766443	-0.048178	0.179657	0.707485	-0.602254	1.312016	5.246429	0.000000	0.000000	21.713638	0.574735	3.336989	8.322432	-17.203653	76.782804	19.958775	42.156379	-4.456036	-7.995674	6.978108	-9.537518	167.913462	1.084418	5.382010	-15.023185	-9.550808
3.212766	-0.906401	0.006014	90.358220	0.055246	0.892507	0.558161	3.055654	0.773013	-4.506233	11.402119	0.199005	31.968018	5.389850	0.000000	-4.182981	0.691527	-5.920354	0.530868	0.009265	29.061222	-0.537962	0.000000	-0.085570	0.123140	0.867581	-0.158913	0.163776	0.921805	-0.140584	0.299403	0.921805	-0.097798	0.299403	0.759134	-0.079461	0.251108	0.704910	-0.048895	0.190744	0.650686	-0.611221	1.392987	4.825226	0.000000	0.000000	22.011948	-0.392609	3.127726	8.352657	-17.194037	76.733960	20.035001	42.340778	-4.325354	-7.866369	6.935558	-9.565716	167.662438	1.104563	5.282236	-14.787772	-9.675259
3.234043	-0.789293	0.094896	90.938216	0.054593	0.892632	0.557440	2.711566	0.938931	-4.858256	11.041099	0.192704	31.895982	5.222570	0.000000	-4.277385	0.484429	-5.627834	0.537713	0.009385	29.277698	0.036821	0.000000	-0.083173	0.128243	0.785696	-0.154461	0.170563	0.834802	-0.136646	0.311810	0.834802	-0.095059	0.311810	0.687484	-0.077235	0.261513	0.638378	-0.047525	0.198648	0.589272	-0.594099	1.450709	4.369803	0.000000	0.000000	22.407472	-1.362767	2.800873	8.370603	-17.143818	76.745170	20.046290	42.599181	-4.232426	-7.745464	6.863449	-9.605759	166.950517	1.128911	5.247903	-14.636880	-9.877025
3.255319	-0.685786	0.208653	91.604891	0.053773	0.892784	0.556641	2.304214	1.092116	-5.324753	10.670778	0.186240	31.762392	5.040419	0.000000	-4.390553	0.288004	-5.187962	0.544194	0.009498	29.509777	0.532957	0.000000	-0.079062	0.133408	0.691182	-0.146826	0.177433	0.734381	-0.129891	0.324369	0.734381	-0.090360	0.324369	0.604784	-0.073417	0.272047	0.561585	-0.045176	0.206650	0.518387	-0.564730	1.509143	3.844147	0.000000	0.000000	22.862627	-2.280072	2.467567	8.411459	-17.080050	76.935703	20.011977	42.969100	-4.210346	-7.667031	6.778511	-9.642910	166.184989	1.137254	5.083130	-14.445378	-10.064400
3.276596	-0.588302	0.345412	92.341040	0.052786	0.892959	0.555791	1.847302	1.234568	-5.940808	10.312931	0.179995	31.555434	4.896757	0.000000	-4.523808	0.096739	-4.657438	0.539539	0.009417	29.751581	0.994542	0.000000	-0.073051	0.140382	0.584775	-0.135663	0.186708	0.621324	-0.120015	0.341325	0.621324	-0.083490	0.341325	0.511678	-0.067835	0.286267	0.475130	-0.041741	0.217452	0.438581	-0.521796	1.588030	3.252344	0.000000	0.000000	23.360186	-3.126988	2.156049	8.483331	-17.018079	77.277285	19.941369	43.512316	-4.249866	-7.607337	6.679244	-9.668035	165.373656	1.122537	4.815773	-14.159427	-10.238867
3.297872	-0.492167	0.494316	93.117900	0.051640	0.893150	0.554914	1.371962	1.360553	-6.752589	10.002264	0.174572	31.297198	4.887521	0.000000	-4.656586	-0.089512	-3.999198	0.548337	0.009570	29.983008	1.312987	0.000000	-0.062541	0.150672	0.468762	-0.116146	0.200394	0.498060	-0.102749	0.366344	0.498060	-0.071479	0.366344	0.410167	-0.058076	0.307250	0.380870	-0.035736	0.233391	0.351572	-0.446727	1.704430	2.607116	0.000000	0.000000	23.815588	-3.869598	1.917057	8.577678	-16.981632	77.629664	19.861382	44.406060	-4.312111	-7.490667	6.582696	-9.664965	164.404175	1.115146	4.707759	-13.715751	-10.405532
3.319149	-0.395972	0.647170	93.890243	0.050421	0.893355	0.554059	0.895913	1.485912	-7.547727	9.725582	0.169743	30.942000	4.790963	0.000000	-4.788248	-0.267887	-3.260582	0.554092	0.009671	30.174732	1.462540	0.000000	-0.048619	0.164430	0.352714	-0.090290	0.218691	0.374759	-0.079876	0.399794	0.374759	-0.055567	0.399794	0.308625	-0.045148	0.335305	0.286581	-0.027781	0.254702	0.264536	-0.347281	1.860062	1.961692	0.000000	0.000000	24.229543	-4.499867	1.758699	8.726968	-16.962911	78.242915	19.739246	45.234773	-4.312384	-7.365433	6.517699	-9.620619	163.716073	1.093308	4.555571	-13.118897	-10.475454
3.340426	-0.297608	0.796022	94.652331	0.049165	0.893564	0.553315	0.438682	1.609443	-8.365342	9.483802	0.165524	30.520045	4.664780	0.000000	-4.905378	-0.440805	-2.438624	0.557431	0.009729	30.317895	1.429947	0.000000	-0.033387	0.181390	0.235978	-0.062002	0.241248	0.250726	-0.054851	0.441031	0.250726	-0.038158	0.441031	0.206481	-0.031003	0.369890	0.191732	-0.019077	0.280973	0.176983	-0.238477	2.051916	1.312438	0.000000	0.000000	24.617207	-4.956662	1.719216	8.925198	-16.966641	79.045284	19.597007	45.940465	-4.264607	-7.219511	6.509117	-9.528730	163.316006	1.057067	4.460673	-12.352330	-10.450416
3.361702	-0.196616	0.939870	95.359488	0.047949	0.893780	0.552686	0.016262	1.748678	-8.981238	9.280817	0.161981	30.020717	4.305918	0.000000	-5.009039	-0.605628	-1.734645	0.557566	0.009731	30.447216	1.424664	0.000000	-0.016140	0.202335	0.130912	-0.029974	0.269105	0.139094	-0.026516	0.491957	0.139094	-0.018446	0.491957	0.114548	-0.014988	0.412601	0.106366	-0.009222	0.313417	0.098184	-0.115286	2.288852	0.728095	0.000000	0.000000	24.931230	-5.282351	1.816814	9.123520	-17.010303	79.911368	19.455460	46.417931	-4.130760	-6.995829	6.573484	-9.368445	163.548339	1.009262	4.499560	-11.508193	-10.267110
3.382979	-0.101040	1.079553	96.013597	0.046776	0.894016	0.552191	-0.368706	1.884134	-9.512730	9.118492	0.159148	29.497116	3.892172	0.000000	-5.098303	-0.753313	-1.057177	0.553830	0.009666	30.536036	1.323187	0.000000	0.002226	0.226599	0.035194	0.004133	0.301377	0.037394	0.003657	0.550953	0.037394	0.002544	0.550953	0.030795	0.002067	0.462080	0.028595	0.001272	0.351002	0.026396	0.015898	2.563332	0.195739	0.000000	0.000000	25.189455	-5.481866	2.085514	9.318820	-17.084679	80.860257	19.296889	46.654077	-3.940596	-6.711567	6.708847	-9.137164	164.268301	0.949700	4.774088	-10.490694	-9.926573
3.404255	-0.009700	1.227931	96.604035	0.045668	0.894313	0.551818	-0.733984	2.019508	-9.957320	8.981721	0.156761	28.946724	3.446950	0.000000	-5.189749	-0.886838	-0.416453	0.546205	0.009533	30.579525	1.135528	0.000000	0.019065	0.254277	-0.048107	0.035406	0.338188	-0.051113	0.031322	0.618248	-0.051113	0.021790	0.618248	-0.042093	0.017704	0.518521	-0.039087	0.010894	0.393874	-0.036080	0.136181	2.876427	-0.267554	0.000000	0.000000	25.406522	-5.557953	2.520199	9.503586	-17.189926	81.887290	19.135845	46.624003	-3.753030	-6.396082	6.914297	-8.833801	165.463939	0.883011	5.323801	-9.459396	-9.418138
3.425532	0.069141	1.384126	97.126756	0.044615	0.894690	0.551539	-1.082136	2.143571	-10.308555	8.868351	0.154782	28.366732	2.960047	0.000000	-5.287862	-0.995866	0.169461	0.536180	0.009358	30.570840	0.898296	0.000000	0.034443	0.284209	-0.119931	0.063964	0.377998	-0.127427	0.056586	0.691025	-0.127427	0.039365	0.691025	-0.104940	0.031984	0.579559	-0.097444	0.019681	0.440240	-0.089949	0.246023	3.215028	-0.667022	0.000000	0.000000	25.572888	-5.514413	3.134646	9.686855	-17.315533	83.022053	18.978495	46.317112	-3.593335	-6.085876	7.178081	-8.471219	167.142094	0.811057	6.060474	-8.624454	-8.775845
